<?xml version="1.0" encoding="UTF-8"?>
<svg id="Layer_1" data-name="Layer 1" xmlns="http://www.w3.org/2000/svg" xmlns:xlink="http://www.w3.org/1999/xlink" version="1.1" viewBox="0 0 1920 36">
  <defs>
    <style>
      .cls-1 {
        clip-path: url(#clippath);
      }

      .cls-2, .cls-3 {
        fill: #fff;
      }

      .cls-3 {
        stroke-width: 0px;
      }
    </style>
    <clipPath id="clippath">
      <path class="cls-3" d="M915.1,26.4l-87.4-20.4c-13.9-3.3-29.2-5-44.7-5H.5v35h1920V1h-782.5c-15.5,0-30.8,1.8-44.7,5l-87.4,20.4c-14.3,3.3-29.9,5-45.4,5s-31.1-1.7-45.4-5Z"/>
    </clipPath>
  </defs>
  <path class="cls-2" d="M915.1,26.4l-87.4-20.4c-13.9-3.3-29.2-5-44.7-5H.5v35h1920V1h-782.5c-15.5,0-30.8,1.8-44.7,5l-87.4,20.4c-14.3,3.3-29.9,5-45.4,5s-31.1-1.7-45.4-5Z"/>
  <g class="cls-1">
    <rect class="cls-2" x=".5" y="-725" width="1920" height="756.5"/>
  </g>
</svg>