<svg xmlns="http://www.w3.org/2000/svg" xmlns:xlink="http://www.w3.org/1999/xlink" width="799.743" height="727.161" viewBox="0 0 799.743 727.161">
  <defs>
    <clipPath id="clip-path">
      <rect id="Rectangle_54" data-name="Rectangle 54" width="799.743" height="727.161" fill="none"/>
    </clipPath>
  </defs>
  <g id="Group_81" data-name="Group 81" clip-path="url(#clip-path)">
    <path id="Path_95" data-name="Path 95" d="M265.3,154.3c-8.57,19.587-11.622,31.117-4.881,59.3,6.025,25.2,9.694,62.69,10.506,71.529L534.21,286.2c-1.292-4.165-4.221-12.38-8.7-18.142-3.1-3.979-3.374-7.894-3.642-11.68-.361-5.052-.733-10.276-7.879-17.166a94.188,94.188,0,0,1-10.314-11.873c-4.469-5.877-7.423-9.76-17.106-13.462-11.927-4.56-21.368-15.676-25.09-24.075-2.188-4.932-2.687-9.23-1.445-12.425,1.894-4.869,3.615-10.194,2.021-12.767-.753-1.215-2.413-1.949-4.93-2.177-2.559-.234-5.129.591-8.109,1.547-7.7,2.467-18.244,5.849-37.422-7.055-14.17-9.533-16.508-16.388-18.055-20.924-1.256-3.69-1.831-5.373-8.877-6.9-3.192-.691-5.53-1.134-7.408-1.489-6.556-1.242-6.981-1.458-11.34-5.753-1.287-1.269-2.889-2.848-5.214-4.994-10.123-9.345-20.563-14.363-31.029-14.915a2.11,2.11,0,0,1-1.383-.618c-6.018-6.016-9.331-9.331-16.116-10.18-8.076-1.01-14.827-5.544-16.216-9.225-1.3-.744-7.515.158-13.121,5.957-5.887,39.764-13.889,58.072-17.537,66.409" transform="translate(105.254 33.497)" fill="#191e51" opacity="0.03"/>
    <path id="Path_96" data-name="Path 96" d="M215.13,304.224c.926,3.21,1.923,6.693,1.462,9.341,19.085,2.989,83.7,4.678,96.911,5-.881-9.534-4.5-45.968-10.365-70.483-7.008-29.3-3.645-41.947,5.121-61.979,6.118-13.984,24.669-56.382,24.212-184.03-16.315-.53-125.491-3.915-154.107-.7-.179,2.6,2.748,10.461,8.716,23.394,3.667,7.945,7.037,47.87-11.941,82.554-7.043,12.873-14.042,23.944-19.666,32.841-7.3,11.543-14.189,22.447-12.805,25.213.845,1.688,2.311,2.582,4.166,3.711,3.852,2.346,8.646,5.266,10.41,16.279,1.461,9.137,4.73,15.665,8.97,17.914a7.985,7.985,0,0,0,7.425-.116c9.41-4.388,17.67-1.184,24.555,9.526a94.282,94.282,0,0,1,5.581,11.033c3.645,7.972,8.179,17.894,13.227,19.335,6.655,1.9,5.846,8.126,5.132,13.617-.533,4.1-1.084,8.336.581,11.9,2.5,5.365.472,7.652-1.679,10.071-2.466,2.776-6.188,6.967-6.872,20.182a32.7,32.7,0,0,0,.491,3.722c.151.546.309,1.1.475,1.675" transform="translate(58.416 0)" fill="#191e51" opacity="0.04"/>
    <path id="Path_97" data-name="Path 97" d="M367.6,383.749a1.464,1.464,0,0,1-.075.151c-2.8,5.179-4.553,8.862-5.834,11.55-3.11,6.525-3.851,8.075-10.039,11.352-5.445,2.882-5.3,9.427-5.092,11.576A19.41,19.41,0,0,0,351,419.723c6.494,1.039,11.38,4.145,15.3,6.641,2.72,1.73,5.28,3.368,6.551,2.862a16.494,16.494,0,0,0,3.559-2.245c2.5-1.885,6.279-4.733,10.442-.57,4.33,4.329,9.213,1.586,12.55-1.471,6.682-6.126,10.524-2.662,14.241.682l.655.588c3.41.729,21.374-9.049,36.283-18.7,4.618-5.044,7.907-6.96,10.972-6.379,4.066.778,5.84,5.524,8.3,12.093a97.482,97.482,0,0,0,5.055,11.818c3.838,7.252,5.337,7.687,5.495,7.713a9.385,9.385,0,0,0,1.77-1.925,15.858,15.858,0,0,1,3.8-3.769c4.323-2.746,7.935,1.375,11.126,5.011,2.239,2.553,4.776,5.448,7.3,5.953a2.52,2.52,0,0,0,1.168.066,16.056,16.056,0,0,0,.075-3.573c-.111-3.068-.248-6.886,1.637-10.42,1.143-2.144,2.477-3.316,4.08-3.581,2.418-.4,4.344,1.4,6.2,3.144,1.487,1.394,3.024,2.835,4.591,3.1.677-.447,1.115-3.532,1.377-5.376.657-4.6,1.472-10.336,6.417-11.043a6.06,6.06,0,0,1,4.8,1.059c2.244,1.795,2.5,5.005,2.78,8.4a27.265,27.265,0,0,0,.836,5.607c2.232,7.254,6.687,10.307,13.623,9.311,5.772-.825,3.858-14.476,2.461-24.446-.407-2.906-.794-5.652-.989-7.98-.767-9.224-3.941-11.168-10.266-15.043-.6-.37-1.229-.753-1.875-1.158-3.983-2.488-5.308-8.25-5.72-12.646-.79-8.426,1.234-20.172,5.877-24.459,2.917-2.693,3.889-6.418,5.235-11.574a81.7,81.7,0,0,1,5.547-15.923c3.662-7.583,4.519-15,2.3-19.847a6.724,6.724,0,0,0-4.219-3.917c-7.329-1.954-8.013-4.587-11.811-19.192-.546-2.1-1.162-4.472-1.878-7.156-5.509-20.657-17.093-25.057-27.52-27.559-9.11-2.187-11.309-9.13-11.219-14.016l-51.137-.21c-5.981,11.25-65.915,124.132-79.161,154.154" transform="translate(142.047 94.126)" fill="#191e51" opacity="0.04"/>
    <path id="Path_98" data-name="Path 98" d="M261.047,288.264c.62,3.287,10.432,13.117,29.188,29.238,2.1,1.8,3.753,3.227,4.677,4.073,5.617,5.148,12.356,36.494,14.063,44.812l54.587,35.622a2.09,2.09,0,0,1,.381.321l0,0c.113.12,8.6,9.045,17.42,14.266.109-3.894,1.335-9.908,7.4-13.12,4.953-2.621,5.259-3.265,8.2-9.433,1.294-2.717,3.067-6.434,5.894-11.666,12.805-28.992,68.294-133.706,78.216-152.389l-209.8-.856h-.038c-1.041-.023-9-.2-20.126-.533.633,15.773,8.307,34.132,13.234,42.343,3.223,5.371,4.169,8.526,3.375,11.25-.829,2.848-3.492,4.463-6.679,6.074" transform="translate(102.95 93.717)" fill="#191e51" opacity="0.07"/>
    <path id="Path_99" data-name="Path 99" d="M271.854,275.374c2.844-4.062,2.2-4.966,1.315-6.219-1.01-1.426-2.537-3.579-.537-7.579s.877-6.005-1.576-10.413c-.815-1.461-1.736-3.116-2.665-5.09-4.323-9.187-1.688-13.711,1.61-15.924.908-2.356.541-3.8-.171-6.463-.286-1.067-.608-2.278-.887-3.715-.141-.513-.278-1.025-.4-1.524C250.29,216.273,87.457,208,.044,203.745c-.352,1.847,1.489,5.351,3.141,8.494,2.245,4.269,4.565,8.683,4.319,12.9q-.07,1.163-.145,2.276c-.433,6.562-.746,11.3,2.81,14.86,5.021,5.02,8.456,11.07,12.677,22.321,3.516,9.373,10.788,22.6,12.879,26.34,16.834.687,200.225,8.736,232.513,10.153-.8-5.445-1.857-17.891,3.617-25.711" transform="translate(0 83.529)" fill="#191e51" opacity="0.07"/>
    <path id="Path_100" data-name="Path 100" d="M480.734,370.379c-18.19,10.2-21.66,9.326-23.479,7.707l-.805-.72c-3.708-3.337-4.708-4.234-8.551-.709-6.45,5.913-13.331,6.415-18.4,1.344-1.386-1.387-1.936-1.282-4.9.957a19.9,19.9,0,0,1-4.537,2.793c-3.272,1.314-6.569-.791-10.389-3.219-3.6-2.287-8.072-5.132-13.7-6.033-10.215-1.634-22.713-13.244-27.022-17.52-12.262,12.384-95.7,96.656-103.016,104.407a2.12,2.12,0,0,1-1.487.663c-15.737.365-26.2,10.867-29.279,14.4l27.369,39.163a2.121,2.121,0,0,1,.375,1.383l-5.441,66.638H481.057L495.2,361.763c-3.406,2.132-8.859,5.473-14.464,8.616" transform="translate(96.408 145.529)" fill="#191e51" opacity="0.12"/>
    <path id="Path_101" data-name="Path 101" d="M623.839,499.725a30.707,30.707,0,0,0,.978-5.8c.374-6.353-3.508-9.452-12.938-14.417-2.858-1.5-4.574-3.526-5.1-6.011-1.093-5.183,3.328-10.755,7.226-15.669l.942-1.191a11.316,11.316,0,0,0,2.263-9.929,8.126,8.126,0,0,0-5.094-5.538c-8.289-3.109-10.7-6.634-11.215-16.4-.558-10.606-3.254-17.623-14.227-17.221-11.159.372-15.842,6.109-20.8,12.186-.832,1.019-1.664,2.037-2.521,3.027a11.632,11.632,0,0,1-9.324,4.334c-4.714-.192-9.825-3.44-13.674-8.69-4.107-5.6-6.327-6.2-11.191-7.514-.694-.187-1.428-.385-2.219-.611-1.891-.541-7.56-3.743-4.348-22.232-7.532.071-12.828-4.179-15.379-12.47a30.771,30.771,0,0,1-1.011-6.51c-.182-2.243-.386-4.788-1.2-5.438a2.254,2.254,0,0,0-1.559-.176c-1.8.255-2.369,4.245-2.825,7.45-.512,3.6-.955,6.713-3.031,8.233a4.165,4.165,0,0,1-3.23.718c-2.83-.471-5.025-2.531-6.789-4.183-.8-.755-2.143-2.012-2.644-2.053a3.982,3.982,0,0,0-1.012,1.4c-1.348,2.528-1.238,5.582-1.141,8.276.1,2.8.2,5.44-1.624,6.988a4.429,4.429,0,0,1-2.985,1,8.627,8.627,0,0,1-1.689-.182c-3.932-.787-6.972-4.252-9.654-7.311-2.666-3.04-4.505-4.981-5.674-4.231a12.5,12.5,0,0,0-2.755,2.827c-1.389,1.754-2.96,3.742-5.475,3.509-2.707-.25-5.185-3.038-8.842-9.944a101.326,101.326,0,0,1-5.277-12.316c-1.672-4.468-3.4-9.09-5.132-9.421-.76-.147-2.625.313-6.758,4.752l-14.342,223H602.456c1.675-20.206,8.443-25.064,14.994-29.769a35.428,35.428,0,0,0,7.821-6.938c8.389-10.6,5.469-25.471.852-32.187-4.074-5.925-3.245-9.361-2.284-13.338" transform="translate(169.138 145.204)" fill="#191e51" opacity="0.07"/>
    <path id="Path_102" data-name="Path 102" d="M235.926,393.691c-2.318-6.623-2.827-16.681-3.367-27.332-.25-4.953-.51-10.076-.962-14.9-1.232-13.141,2.864-17,8.533-22.345,1.344-1.265,2.733-2.573,4.226-4.155,3.156-3.34,2.153-7.411,1.269-11-.667-2.706-1.3-5.261.324-7.074,1.5-1.675,4.054-1.557,5.844-1.323,9.987,1.3,15.449-.279,20.147-5.834.269-.319.468-.578.612-.784-.634-.142-1.514-.274-2.225-.378a24.115,24.115,0,0,1-8.683-2.511c-2.947-1.683-4.443-.9-6.516.183-1.564.818-3.516,1.839-5.944,1.294a4.4,4.4,0,0,1-3.653-4.25c-.1-3.287,3.125-7.636,8.688-9.225,3.086-.881,3.708-3.547,3.765-5.313L26.38,268.634c3.635,9.988,21.413,32.1,29.856,37.732,6.555,4.371,10.895,7.55,11.476,11.765.34,2.466-.636,4.939-3.072,7.783-2.091,2.438-1.641,3.261.823,6.751A28.365,28.365,0,0,1,70.73,343.8c2.036,9.772,14.628,12.4,14.755,12.425a2.116,2.116,0,0,1,1.7,2.126l-1.358,55.166L232.75,422.7c2.916-4.4,6.131-20.566,3.177-29.006" transform="translate(10.815 110.131)" fill="#191e51" opacity="0.12"/>
    <path id="Path_103" data-name="Path 103" d="M395.771,405.575l-53.156-34.686a2.107,2.107,0,0,1-.918-1.351c-3.03-14.967-9.225-39.985-12.953-43.4-.873-.8-2.507-2.2-4.575-3.983-23.211-19.951-31.235-28.663-30.661-33.287a3.479,3.479,0,0,1,1.961-2.754c2.833-1.416,4.54-2.469,4.887-3.66.4-1.375-.534-3.882-2.941-7.894-5.38-8.966-13.266-27.92-13.843-44.648-26.214-.825-65.671-2.422-77.72-4.831-1.375.986-3.22,3.374.11,10.449.867,1.844,1.751,3.432,2.532,4.833,2.6,4.677,4.66,8.37,1.664,14.36-.866,1.731-.6,2.112.206,3.243,1.713,2.417,2.9,5.084-1.3,11.091-5.964,8.523-2.514,24.9-2.479,25.065,0,.011,0,.022,0,.034l.008.024c.609,3.25,0,9.9-6.656,11.8a8.417,8.417,0,0,0-5.375,4.086,1.7,1.7,0,0,0-.227,1.076h0a1.02,1.02,0,0,0,.321.117c.885.19,1.7-.2,3.067-.914,2.373-1.242,5.622-2.937,10.575-.109a20.791,20.791,0,0,0,7.2,2c2.795.413,5.207.77,6,2.876.718,1.9-.574,3.779-1.778,5.2-5.636,6.662-12.563,8.779-23.924,7.3a6.011,6.011,0,0,0-2.1-.025,14.861,14.861,0,0,0,.581,3.216c.971,3.942,2.438,9.9-2.3,14.919-1.578,1.669-3.078,3.082-4.4,4.329-5.5,5.185-8.265,7.787-7.225,18.872.461,4.911.722,10.08.976,15.08.523,10.337,1.018,20.1,3.136,26.149,3.579,10.225-.436,29.79-4.722,34.076a2.117,2.117,0,0,1-1.5.62q-.066,0-.131,0l-13.08-.818c-.532,2.974-.8,7.727,1.008,9.306,3.535,3.092,9.451,8.269,4.537,15.026a37.686,37.686,0,0,1-2.8,3.307c-3.177,3.469-6.176,6.742-6.176,16.549,0,4.9.943,8.151,2.589,8.908.905.416,3.721.778,10.329-4.887,9.9-8.488,41.687-25.777,43.035-26.51a2.115,2.115,0,0,1,2.714.608l42.478,57.842c4.062-4.488,14.761-14.353,30.839-15.071,10.344-10.779,89.109-90.339,102.168-103.527" transform="translate(66.259 92.275)" fill="#191e51" opacity="0.04"/>
  </g>
</svg>
